<?xml version="1.0" standalone="no"?>
<!DOCTYPE svg PUBLIC "-//W3C//DTD SVG 20010904//EN"
 "http://www.w3.org/TR/2001/REC-SVG-20010904/DTD/svg10.dtd">
<svg version="1.0" xmlns="http://www.w3.org/2000/svg"
 width="832.000000pt" height="480.000000pt" viewBox="0 0 832.000000 480.000000"
 preserveAspectRatio="xMidYMid meet">
<metadata>
Created by potrace 1.16, written by Peter Selinger 2001-2019
</metadata>
<g transform="translate(0.000000,480.000000) scale(0.100000,-0.100000)"
fill="#000000" stroke="none">
<path d="M0 3524 c0 -1211 1 -1276 18 -1270 16 6 16 5 -1 -8 -16 -12 -17 -66
-15 -936 l3 -923 32 -17 c18 -10 38 -22 45 -27 14 -11 143 -56 168 -58 8 -1
40 -7 70 -13 186 -38 304 -45 410 -24 36 6 164 15 285 18 121 3 227 7 235 10
8 3 80 8 160 11 142 5 192 17 212 47 5 8 8 7 8 -1 0 -7 6 -13 14 -13 8 0 16
-5 18 -10 2 -7 19 -8 45 -4 33 5 44 12 51 33 10 28 -1 71 -18 71 -11 0 -70 59
-70 71 0 16 -139 83 -230 111 -36 11 -83 30 -105 41 -53 29 -115 72 -90 63 11
-5 30 -9 43 -11 12 -1 30 -9 40 -18 9 -8 42 -23 72 -32 30 -9 68 -21 84 -26
16 -5 27 -6 23 -3 -3 4 0 13 8 21 12 12 10 25 -15 97 -53 149 -61 364 -20 511
4 17 16 62 25 100 9 39 21 74 26 80 14 14 11 25 -6 25 -8 0 -15 5 -15 10 0 6
5 10 11 10 5 0 8 4 4 10 -3 5 -12 7 -19 4 -12 -5 -12 1 0 36 8 23 12 46 9 51
-4 5 -2 9 3 9 4 0 26 34 47 77 39 78 72 121 90 115 5 -2 7 0 3 4 -4 4 -3 13 3
21 9 10 8 13 -2 13 -8 0 -4 9 9 23 12 13 20 26 17 28 -2 3 9 20 25 38 22 24
28 37 21 49 -6 11 -3 21 13 35 19 17 19 18 2 13 -12 -4 -3 8 21 31 21 21 31
32 21 24 -10 -8 -21 -12 -24 -8 -9 9 6 47 19 47 6 0 22 10 36 22 14 13 20 16
14 8 -7 -8 -13 -22 -13 -33 0 -15 6 -18 33 -15 20 2 32 8 32 18 0 8 11 17 25
18 27 4 57 22 58 35 1 5 18 21 39 38 21 16 43 32 48 37 20 15 106 72 110 72 3
0 2 -13 -2 -30 -3 -19 -1 -30 6 -30 6 0 11 4 11 10 0 5 8 6 17 3 11 -4 12 -8
5 -11 -7 -2 -12 -12 -12 -23 0 -16 6 -18 41 -15 45 4 85 39 114 100 11 24 25
36 45 40 16 3 37 13 47 23 10 10 27 17 38 16 11 -2 14 0 8 3 -23 10 -14 26 11
20 34 -8 40 7 13 31 -30 28 -91 25 -123 -6 -14 -13 -27 -21 -31 -18 -10 10 42
78 103 136 39 37 52 56 44 61 -10 6 -9 10 2 16 42 26 167 249 167 299 l0 20
-16 -20 c-15 -19 -15 -19 -10 10 5 23 0 18 -18 -19 -13 -28 -21 -54 -18 -59 3
-6 1 -7 -5 -3 -6 3 -14 -3 -18 -16 -3 -12 -12 -28 -19 -35 -7 -7 -15 -18 -18
-25 -2 -7 -8 -10 -12 -6 -4 4 -2 14 4 22 8 10 10 27 6 46 -5 22 -3 32 9 36 9
3 16 15 16 26 0 10 4 17 9 13 13 -7 23 28 15 49 -3 9 -1 23 6 31 7 8 10 26 6
40 -6 23 -11 25 -64 25 -33 -1 -65 -7 -76 -15 -13 -10 -24 -11 -37 -4 -14 7
-19 6 -19 -4 0 -7 -10 -14 -22 -14 -13 -1 -27 -8 -33 -15 -5 -7 -21 -19 -35
-26 -53 -27 -210 -197 -210 -227 0 -7 -7 -15 -15 -19 -8 -3 -15 -12 -15 -20 0
-8 -3 -16 -8 -18 -4 -1 -19 -29 -35 -60 -15 -31 -33 -60 -40 -64 -6 -4 -9 -4
-5 1 4 4 3 16 -3 26 -10 20 0 51 17 50 5 0 10 7 10 17 1 9 2 22 3 28 1 5 11
21 23 34 20 21 109 181 137 247 6 11 15 24 20 28 6 3 11 15 11 26 0 10 4 19 9
19 5 0 17 21 27 48 20 55 33 74 45 66 5 -2 8 11 7 30 -1 21 7 44 20 61 12 15
22 35 22 45 0 9 21 37 47 62 27 25 59 61 73 81 14 19 28 33 33 30 4 -2 7 3 7
11 0 10 6 13 15 10 11 -5 13 -2 8 12 -4 11 -3 15 5 10 6 -3 17 1 24 10 7 9 23
26 36 39 12 12 22 28 22 34 0 7 4 10 9 6 5 -3 12 -1 16 5 3 5 -2 10 -12 10
-15 0 -15 2 -3 9 8 6 17 8 21 5 9 -5 23 15 24 36 1 11 -8 15 -31 16 -18 0 -31
-3 -28 -8 3 -4 -2 -8 -10 -8 -9 0 -16 -4 -16 -9 0 -5 -11 -12 -25 -15 -14 -4
-25 -11 -25 -16 0 -5 -7 -7 -15 -4 -8 4 -15 1 -15 -5 0 -6 -6 -11 -13 -11 -17
0 -201 -109 -205 -121 -2 -5 -13 -9 -25 -9 -12 0 -31 -11 -42 -24 -11 -12 -34
-30 -50 -38 -17 -9 -39 -26 -50 -38 -11 -12 -38 -30 -60 -41 -22 -11 -56 -31
-75 -45 -19 -14 -43 -23 -53 -20 -11 2 -16 2 -13 -1 6 -6 -122 -103 -136 -103
-4 0 -19 -12 -33 -27 -14 -15 -25 -24 -25 -19 0 5 -7 2 -16 -5 -9 -7 -23 -14
-32 -15 -26 -4 -62 -26 -56 -36 8 -12 -10 -10 -25 5 -8 7 -11 7 -8 1 8 -15 -4
-24 -73 -54 -30 -14 -75 -39 -100 -56 -25 -17 -56 -35 -70 -39 -14 -4 -43 -20
-65 -35 -43 -28 -137 -74 -196 -95 -20 -7 -69 -32 -109 -54 -39 -23 -74 -41
-76 -41 -4 0 -54 -22 -140 -61 -22 -11 -44 -19 -49 -19 -5 0 -18 -9 -29 -19
-21 -20 -177 -101 -194 -101 -13 0 -156 -74 -191 -99 -16 -12 -34 -21 -40 -21
-6 0 -11 -4 -11 -10 0 -5 -9 -10 -20 -10 -11 0 -20 -5 -20 -11 0 -7 -10 -9
-24 -7 -17 4 -23 1 -19 -9 3 -7 1 -13 -5 -13 -6 0 -12 6 -15 13 -3 8 -10 7
-26 -7 -11 -11 -21 -14 -21 -8 0 13 51 42 73 42 8 0 20 7 27 15 11 13 15 13
21 3 7 -10 9 -10 9 2 0 21 105 88 274 174 77 40 178 93 224 118 45 26 82 44
82 42 0 -2 16 5 36 17 20 11 132 69 249 129 200 102 325 173 625 355 69 42
164 100 211 128 48 29 143 90 210 137 68 46 225 151 349 234 124 82 255 173
292 200 37 28 90 67 118 86 28 19 57 40 63 45 33 29 252 188 321 234 141 92
349 189 456 211 52 11 102 23 110 27 18 7 26 9 65 16 17 3 61 10 98 17 51 9
75 9 93 1 13 -6 37 -8 52 -5 29 6 110 -21 99 -32 -10 -10 180 -154 203 -154
29 0 102 17 180 42 50 16 77 19 114 14 26 -4 45 -10 42 -13 -10 -10 20 -30 55
-38 42 -9 149 -55 149 -65 0 -3 19 -16 43 -28 116 -58 338 -289 401 -418 21
-43 42 -87 47 -96 5 -10 9 -29 9 -42 0 -13 7 -37 15 -52 8 -16 15 -46 15 -67
0 -21 7 -51 15 -68 9 -16 13 -33 10 -38 -2 -5 0 -33 5 -62 15 -80 17 -91 34
-249 32 -288 35 -327 40 -435 l5 -110 -18 50 c-48 133 -123 234 -187 255 -32
11 -35 15 -29 41 7 33 -2 89 -15 89 -5 0 -12 -9 -15 -20 -3 -11 -11 -20 -17
-20 -6 0 -7 7 -3 18 5 9 10 32 13 50 l4 33 24 -22 c15 -14 24 -18 24 -9 0 7
-8 18 -17 25 -17 13 -48 99 -32 89 14 -8 11 4 -7 31 -9 14 -31 34 -50 46 -36
22 -46 43 -16 32 9 -3 29 -15 45 -25 l27 -19 0 44 c0 34 -13 69 -52 148 l-53
104 -100 68 c-111 74 -135 98 -171 173 -28 60 -113 144 -140 140 -12 -2 -20
-12 -22 -29 -2 -15 -9 -27 -16 -27 -7 0 -21 -9 -31 -20 -10 -11 -27 -20 -37
-20 -11 0 -29 -5 -41 -12 -36 -20 -90 -38 -117 -38 -15 0 -31 -5 -36 -10 -6
-6 -59 -15 -120 -20 -60 -6 -148 -17 -197 -25 -112 -19 -107 -20 -107 13 0 55
54 90 163 106 26 4 47 11 47 16 0 5 17 14 38 20 20 7 44 19 53 26 9 8 19 11
23 7 4 -4 4 0 0 10 -3 9 -13 17 -21 17 -8 0 -28 7 -46 17 -18 9 -71 20 -120
24 -77 6 -93 11 -116 33 -20 19 -38 26 -68 26 -51 0 -162 -34 -194 -58 -13
-11 -40 -26 -59 -36 -45 -21 -151 -128 -184 -186 -47 -83 -95 -184 -125 -265
-16 -44 -43 -116 -59 -160 -16 -44 -35 -114 -41 -155 -19 -116 -50 -243 -94
-382 -42 -134 -53 -148 -113 -148 -15 0 -34 -10 -44 -22 -10 -13 -21 -20 -24
-17 -3 3 22 44 57 90 67 89 91 128 84 135 -2 3 -19 -18 -37 -46 -18 -28 -35
-48 -38 -46 -2 3 2 16 10 28 22 34 56 129 63 179 4 24 9 55 11 69 2 14 7 57
10 95 3 39 21 116 40 175 19 58 46 141 61 185 51 156 95 247 178 370 46 69 79
123 74 120 -19 -13 -7 9 33 59 l42 51 -52 -49 c-78 -75 -159 -195 -209 -308
-24 -57 -56 -128 -70 -158 -14 -30 -26 -65 -27 -77 0 -11 -4 -19 -7 -17 -3 2
-13 -24 -23 -56 -9 -33 -20 -60 -26 -60 -9 0 -23 56 -20 75 2 6 2 19 1 30 -1
11 -25 -38 -54 -110 -29 -71 -58 -139 -65 -150 -14 -24 -16 -6 -2 29 6 17 6
26 0 26 -6 0 -10 -7 -10 -15 0 -8 -9 -24 -20 -35 -11 -11 -20 -24 -20 -30 0
-5 -9 -19 -19 -29 -11 -11 -27 -34 -36 -50 -10 -20 -20 -28 -30 -25 -19 8 -20
4 17 82 18 37 32 70 32 74 1 3 4 10 9 14 4 4 7 16 7 26 0 11 3 17 8 14 4 -2
16 17 26 42 10 26 38 89 63 139 25 51 43 98 41 104 -5 16 -77 -118 -104 -196
-13 -38 -23 -56 -21 -40 2 17 2 24 0 18 -3 -7 -9 -13 -14 -13 -5 0 -9 -8 -9
-19 0 -22 -23 -44 -35 -33 -5 4 -5 1 -1 -5 4 -7 0 -27 -8 -45 -8 -18 -26 -66
-41 -106 -15 -41 -47 -112 -71 -159 -24 -47 -42 -89 -39 -93 3 -5 0 -12 -6
-16 -8 -4 -9 -3 -5 4 4 7 5 12 3 12 -9 0 -77 -110 -83 -134 -3 -15 -16 -34
-28 -44 -22 -19 -32 -42 -17 -42 5 0 12 6 14 13 4 9 8 9 15 -2 7 -9 12 -10 16
-2 4 6 2 11 -4 11 -6 0 -8 5 -5 10 4 6 11 8 16 4 6 -3 19 2 31 13 18 16 18 14
-3 -19 -13 -20 -30 -37 -37 -38 -8 0 -12 -6 -9 -12 2 -7 -8 -24 -22 -37 -14
-13 -20 -20 -13 -17 6 4 12 3 12 -2 0 -6 -14 -15 -30 -21 -32 -11 -42 -24 -12
-15 9 2 7 -1 -6 -7 -12 -7 -21 -18 -20 -25 2 -7 -6 -20 -17 -29 -11 -9 -15
-14 -9 -11 16 8 26 -21 11 -31 -7 -4 -15 -8 -19 -8 -3 0 -10 -4 -15 -9 -4 -5
-3 -6 3 -3 21 12 25 -25 5 -47 -10 -12 -28 -42 -39 -69 -12 -26 -28 -50 -36
-53 -8 -3 -12 -12 -10 -19 3 -7 1 -16 -5 -20 -6 -3 -11 -15 -11 -26 0 -15 13
-6 55 37 30 32 55 61 55 66 0 4 7 8 15 8 8 0 15 -8 15 -17 0 -15 2 -16 10 -3
5 8 10 11 10 6 0 -5 11 4 24 19 13 15 22 34 19 42 -3 7 -1 13 3 14 5 0 17 2
26 4 16 3 16 1 1 -21 -8 -13 -18 -24 -22 -24 -3 0 -17 -23 -30 -50 -14 -28
-28 -50 -31 -50 -4 0 -12 -12 -19 -27 -12 -28 -12 -28 6 -8 11 11 38 48 61 83
51 73 65 81 27 15 -19 -34 -21 -41 -6 -23 11 14 21 21 21 16 0 -5 11 1 25 14
14 13 25 20 25 15 0 -5 11 6 25 25 l24 33 10 -24 c86 -227 187 -319 351 -319
41 0 90 4 108 9 18 6 30 6 27 1 -6 -10 -95 -30 -135 -30 -34 0 -37 -7 -15 -36
8 -10 15 -27 15 -36 0 -10 4 -18 9 -18 5 0 13 -10 16 -22 8 -25 59 -138 105
-233 36 -73 29 -30 -11 69 -16 38 -25 74 -22 79 3 6 1 7 -5 3 -8 -5 -12 1 -12
14 0 12 -4 19 -9 16 -5 -3 -11 1 -15 9 -3 8 -1 17 4 20 6 4 10 1 10 -4 0 -6 6
-11 13 -11 25 0 124 -256 157 -403 24 -110 40 -283 40 -438 0 -137 -3 -172
-17 -200 -10 -20 -19 -64 -21 -104 -3 -67 -2 -69 13 -45 15 24 16 22 10 -40
-9 -102 -15 -125 -38 -152 -29 -32 -53 -40 -67 -22 -18 21 -32 18 -68 -16 -18
-17 -36 -30 -39 -30 -3 0 -13 -8 -22 -18 -23 -26 -81 -65 -87 -59 -3 3 27 40
68 82 40 42 90 101 110 131 125 183 155 619 68 977 -18 73 -24 49 -11 -45 7
-46 14 -150 17 -233 5 -145 5 -149 -12 -117 -9 17 -23 32 -30 32 -8 0 -14 5
-14 11 0 13 -38 49 -52 49 -4 0 -8 6 -8 14 0 23 -38 26 -64 5 -29 -23 -45 -66
-47 -134 -4 -94 -41 -92 -54 3 -4 29 -10 52 -14 52 -4 0 -16 33 -26 73 -26
103 -66 173 -91 165 -5 -2 -10 1 -11 6 -1 5 -5 12 -10 15 -14 10 -73 133 -73
152 0 11 -5 19 -11 19 -6 0 -9 6 -6 14 6 15 -35 66 -53 66 -5 0 -10 4 -10 9 0
19 -85 94 -128 114 -26 11 -52 27 -59 36 -10 14 -17 14 -60 3 -64 -17 -142
-72 -235 -166 l-48 -49 0 -71 c0 -55 6 -83 25 -124 14 -30 25 -65 25 -78 0
-13 4 -24 8 -24 13 0 51 -94 67 -164 3 -15 9 -26 12 -22 6 6 63 -49 63 -61 0
-5 14 -22 30 -40 17 -18 30 -39 30 -47 0 -8 6 -19 14 -23 8 -4 16 -12 17 -18
2 -5 28 -31 59 -56 30 -26 66 -61 79 -78 13 -17 29 -31 36 -31 7 0 35 -22 64
-49 29 -27 67 -57 86 -65 19 -9 47 -28 63 -41 33 -28 191 -105 214 -105 9 0
21 -6 27 -14 9 -11 0 -25 -46 -69 -66 -64 -108 -94 -206 -145 -38 -21 -76 -42
-85 -47 -61 -37 -264 -141 -352 -180 -119 -53 -108 -53 -328 -10 -67 14 -216
37 -330 52 -224 29 -302 30 -952 23 -294 -3 -322 -2 -419 18 -186 40 -438 128
-478 168 -8 8 -18 14 -23 14 -5 0 -15 3 -24 6 -14 5 -16 -13 -16 -160 l0 -166
1328 2 1327 3 57 33 c88 50 128 65 128 48 0 -7 -12 -19 -28 -25 -15 -6 -41
-22 -57 -36 l-30 -24 1121 -1 1122 0 8 67 c4 38 9 57 11 43 2 -14 6 -44 9 -67
8 -66 21 -51 20 24 -1 54 2 68 14 68 24 0 24 67 1 121 -24 53 -28 104 -8 104
8 0 46 -11 85 -25 88 -31 215 -50 432 -65 330 -23 585 -70 770 -141 92 -36
123 -53 176 -96 l41 -33 897 0 896 0 0 2400 0 2400 -4160 0 -4160 0 0 -1276z
m5035 -51 c22 -21 11 -72 -33 -155 -5 -10 144 -84 198 -98 25 -6 56 -19 70
-28 l25 -17 -45 -6 c-34 -5 -60 -1 -105 16 -135 51 -285 155 -285 197 0 29 36
21 74 -17 39 -39 43 -41 43 -22 0 6 3 28 7 47 l7 35 -19 -24 -19 -23 -1 33
c-2 65 45 100 83 62z m-563 -251 c34 -14 80 -43 75 -48 -2 -2 -28 4 -58 13
-72 24 -277 23 -418 0 -96 -17 -124 -17 -108 -1 3 4 41 15 84 26 139 34 352
39 425 10z m19 -85 c-6 -8 -36 -24 -68 -38 -56 -23 -56 -24 -28 -30 58 -13
182 -9 225 6 55 19 57 19 70 -6 30 -55 -59 -129 -154 -129 -41 0 -62 6 -97 29
-36 23 -63 30 -144 40 -77 9 -104 16 -116 31 -9 10 -19 16 -23 13 -3 -4 -6 0
-6 8 0 20 48 23 76 4 28 -18 87 -20 117 -3 20 11 17 13 -33 23 l-55 11 65 12
c36 7 88 19 115 26 65 18 70 19 56 3z m1255 -243 c61 -414 216 -754 500 -1094
86 -103 296 -307 328 -320 14 -5 50 -5 88 0 82 12 285 13 292 1 3 -5 34 -12
68 -16 206 -21 320 -77 415 -202 62 -82 89 -139 114 -245 21 -89 26 -200 7
-160 -6 12 -17 22 -24 22 -17 0 -44 53 -79 154 -24 71 -39 97 -95 170 -80 103
-121 117 -195 67 -76 -51 -94 -58 -281 -105 -264 -66 -359 -80 -584 -82 -180
-3 -491 -19 -567 -30 -18 -3 -33 -10 -33 -15 0 -10 -42 -70 -67 -97 -7 -7 -13
-20 -13 -28 0 -8 -7 -17 -15 -20 -8 -4 -15 -12 -15 -20 0 -8 -4 -14 -9 -14 -5
0 -17 -7 -26 -16 -15 -16 -16 -14 -9 22 3 21 12 50 19 64 8 14 16 42 20 63 4
20 11 37 16 37 19 0 8 28 -13 34 -13 4 -113 13 -223 21 -110 8 -230 18 -268
23 l-67 8 -12 -41 -12 -40 -4 34 c-5 51 14 114 68 227 54 111 63 120 206 192
44 22 107 56 140 76 32 20 66 36 75 36 22 0 57 40 70 80 6 19 23 45 38 57 29
25 25 -5 47 386 4 75 8 136 10 134 4 -4 46 -160 48 -182 2 -11 10 -34 19 -52
10 -18 17 -38 17 -46 0 -13 31 -63 89 -142 20 -26 28 -47 24 -62 -7 -31 36
-162 58 -173 9 -6 25 -17 34 -26 9 -9 36 -19 61 -22 32 -3 50 -11 60 -27 23
-35 103 -65 173 -65 33 0 62 4 66 9 3 5 16 -1 30 -15 13 -13 34 -24 45 -24 12
0 30 -5 41 -10 20 -11 70 6 52 19 -16 11 -54 69 -51 79 4 12 -148 157 -182
174 -37 19 -53 37 -46 53 3 9 0 12 -10 8 -7 -3 -14 1 -14 8 0 7 -7 19 -14 28
-55 60 -95 110 -107 133 -8 15 -42 78 -75 140 -142 263 -226 523 -254 793 -22
203 -3 231 26 39z m-308 -238 c45 -41 81 -109 92 -174 6 -36 8 -40 9 -17 l2
30 29 -34 c34 -40 60 -139 60 -230 0 -87 -19 -89 -51 -4 -8 23 -8 26 2 16 7
-7 17 -13 21 -13 20 0 -2 153 -24 166 -5 3 -15 -2 -22 -12 -18 -24 -24 -11
-47 99 -21 101 -52 158 -99 182 -31 16 -38 25 -20 25 5 0 27 -15 48 -34z m-91
-137 c17 -5 39 -22 48 -36 l17 -26 -63 7 c-97 10 -195 17 -184 12 6 -3 36 -7
68 -11 32 -4 57 -8 55 -10 -1 -1 -43 -6 -93 -9 -82 -6 -88 -5 -70 9 18 14 17
15 -15 9 -39 -8 -87 -26 -205 -78 -44 -20 -93 -36 -110 -35 -23 0 -18 4 24 15
30 8 93 37 140 64 187 106 272 126 388 89z m-1739 -452 c12 -12 30 -45 38 -75
9 -29 22 -65 30 -80 8 -15 14 -38 14 -52 0 -29 51 -83 113 -119 56 -34 44 -61
-22 -51 -38 5 -121 96 -121 132 0 6 -11 26 -25 44 -14 18 -25 35 -25 39 0 11
-82 115 -91 115 -4 0 3 -22 16 -49 35 -70 34 -81 -8 -59 -12 6 -29 14 -37 18
-15 7 -62 111 -54 119 3 3 16 -8 29 -24 20 -25 23 -26 19 -9 -6 22 20 83 40
96 11 8 46 -11 84 -45z m1378 -1433 c7 -61 -1 -301 -15 -399 -7 -51 -8 -37
-10 85 -1 155 -9 190 -35 155 -27 -37 -29 -6 -6 82 40 154 54 170 66 77z"/>
<path d="M5485 1555 c-51 -31 -56 -43 -38 -79 31 -59 95 -115 139 -122 37 -5
43 -4 49 16 4 14 1 28 -9 39 -9 10 -35 52 -59 93 l-43 76 -39 -23z"/>
<path d="M3517 3905 c-15 -14 -27 -30 -27 -35 0 -6 -6 -10 -13 -10 -24 0 -57
-37 -57 -63 0 -14 -4 -29 -10 -32 -6 -4 -10 6 -10 22 0 27 0 27 -15 6 -8 -12
-12 -28 -9 -36 3 -8 0 -18 -7 -23 -9 -5 -10 -2 -6 9 13 34 -9 16 -30 -25 -33
-63 -44 -98 -33 -98 6 0 15 12 20 26 8 21 40 63 40 52 0 -2 -7 -24 -15 -50 -8
-27 -10 -48 -5 -48 6 0 10 8 11 18 0 14 2 14 9 -3 5 -11 9 -14 9 -6 1 7 29 59
63 115 70 117 121 206 116 206 -2 0 -16 -11 -31 -25z"/>
<path d="M1847 1529 c-22 -21 -43 -37 -48 -34 -4 3 -14 -3 -21 -15 -7 -11 -18
-20 -25 -20 -6 0 -15 -9 -18 -20 -3 -11 -10 -20 -15 -20 -5 0 -11 -14 -15 -31
-4 -17 -9 -28 -13 -25 -7 8 -47 -56 -44 -70 1 -6 -5 -17 -13 -24 -8 -7 -15
-20 -15 -29 0 -9 -7 -29 -15 -45 -8 -15 -15 -52 -15 -82 0 -43 -3 -52 -15 -48
-10 4 -15 0 -14 -12 0 -11 3 -14 5 -7 10 23 34 1 35 -31 0 -31 17 -83 18 -58
1 7 5 11 10 7 5 -3 12 4 16 15 4 11 10 18 15 15 4 -3 7 6 5 20 -1 14 0 23 3
20 7 -7 62 46 62 59 0 6 -6 4 -13 -4 -7 -8 -21 -22 -32 -30 -13 -9 -16 -10 -8
-1 6 7 9 21 6 30 -4 13 -3 13 5 2 8 -11 14 -6 26 23 9 21 13 49 10 62 -4 15
-2 24 5 24 6 0 11 7 11 16 0 12 -5 11 -20 -7 -31 -38 -23 -13 19 56 21 35 42
61 46 57 5 -4 5 -1 1 6 -4 7 5 32 23 59 17 26 31 42 31 37 1 -10 49 77 50 89
0 5 -4 5 -10 2 -14 -9 -13 18 2 33 6 6 10 14 7 16 -2 2 -21 -13 -42 -35z"/>
<path d="M2197 1053 c4 -10 17 -31 30 -46 13 -16 23 -32 23 -36 0 -24 -20 -15
-74 33 -56 49 -63 53 -81 40 -10 -8 -14 -14 -7 -14 6 0 9 -6 6 -14 -3 -7 6
-39 20 -71 14 -31 23 -62 19 -68 -3 -6 -1 -7 5 -3 14 8 72 -76 82 -118 9 -42
-4 -76 -30 -76 -11 0 -20 -6 -20 -12 0 -10 -2 -10 -8 -1 -5 8 -17 10 -37 4
-32 -8 -33 -11 -21 -54 6 -21 14 -27 35 -26 50 2 131 -18 152 -37 16 -14 38
-19 88 -20 36 -1 84 -9 106 -18 22 -8 34 -15 28 -16 -27 0 -11 -17 27 -30 22
-7 42 -21 45 -32 7 -19 35 -25 35 -7 0 6 6 9 13 6 44 -17 45 51 1 98 -29 32
-31 56 -4 75 19 14 13 21 -120 151 -77 75 -140 142 -140 149 0 6 -4 8 -10 5
-6 -4 -10 6 -10 23 0 38 -51 89 -97 98 -19 4 -37 13 -40 20 -3 8 -9 14 -14 14
-4 0 -5 -8 -2 -17z"/>
<path d="M5160 253 c0 -20 47 -50 97 -62 69 -17 337 -24 387 -10 75 21 45 27
-279 60 -60 6 -131 13 -157 16 -28 3 -48 1 -48 -4z"/>
<path d="M5485 108 c-22 -5 -44 -13 -49 -18 -6 -6 -38 -10 -71 -10 -66 0 -85
-12 -99 -57 l-7 -23 155 0 c139 0 158 2 175 19 28 28 32 67 7 79 -32 16 -67
19 -111 10z"/>
<path d="M5970 88 c-20 -22 -113 -48 -172 -48 -20 0 -48 -4 -62 -10 -68 -26
-18 -30 340 -30 357 0 366 1 343 18 -30 23 -71 39 -131 52 -27 5 -68 14 -93
20 -24 5 -81 11 -125 14 -72 3 -83 2 -100 -16z"/>
</g>
</svg>
